# xmcd CD database file
#
# Track frame offsets:
#	150
#	20700
#	44100
#	66525
#	87375
#	107925
#	128700
#	148937
#	166650
#	191100
#	211200
#	231750
#	253875
#	276675
#	295445
#	316725
#
# Disc length: 4524 seconds
#
# Revision: 0
# Processed by: cddbd v1.5PL3 Copyright (c) Steve Scherf et al.
# Submitted via: CDex 1.51
#
DISCID=0a11aa10
DTITLE=杉山清貴＆オメガトライブ - CORE BEST TRACKS
DYEAR=1998
DGENRE=Japanese Pop
TTITLE0=SUMMER SUSPICION
TTITLE1=ASPHALT LADY
TTITLE2=君のハートはマリンブルー
TTITLE3=RIVER'S ISLAND
TTITLE4=DO IT AGAIN
TTITLE5=Riverside Hotel
TTITLE6=Misty Night Cruising
TTITLE7=Eastern Railroad
TTITLE8=ROUTE 134
TTITLE9=ガラスのPALM TREE
TTITLE10=NOVEMBER BLUE
TTITLE11=PLATONIC DANCER
TTITLE12=LONELY RUNNER
TTITLE13=ふたりの夏物語 NEVER ENDING SUMMER<Live Version>
TTITLE14=SUMMER SUSPICION <Live Version>
TTITLE15=ALONE AGAIN
EXTD=YEAR: 1998
EXTT0=
EXTT1=
EXTT2=
EXTT3=
EXTT4=
EXTT5=
EXTT6=
EXTT7=
EXTT8=
EXTT9=
EXTT10=
EXTT11=
EXTT12=
EXTT13=
EXTT14=
EXTT15=
PLAYORDER=
